<?xml version="1.0" encoding="UTF-8"?>
<svg xmlns="http://www.w3.org/2000/svg" width="1440" height="666" viewBox="0 0 1440 666"><style>
    .brand{font:700 14px Arial,sans-serif;letter-spacing:2px;fill:#2456a6}
    .title{font:800 31px 'Apple SD Gothic Neo','Noto Sans CJK KR',sans-serif;fill:#151515}
    .subtitle{font:500 18px 'Apple SD Gothic Neo','Noto Sans CJK KR',sans-serif;fill:#53565a}
    .date{font:600 15px 'Apple SD Gothic Neo','Noto Sans CJK KR',sans-serif;fill:#555}
    .section{font:800 22px 'Apple SD Gothic Neo','Noto Sans CJK KR',sans-serif;fill:#171717}
    .th{font:850 16px 'Apple SD Gothic Neo','Noto Sans CJK KR',sans-serif}.headerText{fill:#fff}
    .td{font:650 16px 'Apple SD Gothic Neo','Noto Sans CJK KR',sans-serif;fill:#202124}.gradeText{font-weight:850}
    .callout{font:650 15px 'Apple SD Gothic Neo','Noto Sans CJK KR',sans-serif;fill:#24344d}
    .foot{font:500 13px 'Apple SD Gothic Neo','Noto Sans CJK KR',sans-serif;fill:#666}
    .grid{stroke:#b8b6b0;stroke-width:1}
  </style><rect width="1440" height="666" fill="#f4f1e9"/><rect x="38" y="38" width="1364" height="590" rx="8" fill="#fff" stroke="#d3cec2" stroke-width="2"/><text x="78" y="90" class="brand">NIMBYRAIL PASSENGER INFORMATION</text><text x="78" y="142" class="title">[붙임] 경북순환·충주–남대구 신설 요약</text><text x="78" y="181" class="subtitle">ITX-마음 12편 운행계획</text><text x="1362" y="142" text-anchor="end" class="date">2026-07-31 기준</text><rect x="78" y="220" width="1284" height="42" rx="9" fill="#e15a2b" opacity=".10"/><rect x="78" y="220" width="9" height="42" rx="5" fill="#e15a2b"/><text x="102" y="249" class="section">새로 운행하는 열차</text><rect x="78" y="274" width="1284" height="148" fill="#fff" stroke="#555" stroke-width="1.5"/><rect x="78" y="274" width="1284" height="56" fill="#30343b"/><text x="238.5" y="307" text-anchor="middle" class="th headerText"><tspan x="238.5" dy="0">계통</tspan></text><text x="559.5" y="307" text-anchor="middle" class="th headerText"><tspan x="559.5" dy="0">열차번호</tspan></text><line x1="399" y1="274" x2="399" y2="330" class="grid"/><text x="880.5" y="307" text-anchor="middle" class="th headerText"><tspan x="880.5" dy="0">운행 횟수</tspan></text><line x1="720" y1="274" x2="720" y2="330" class="grid"/><text x="1201.5" y="307" text-anchor="middle" class="th headerText"><tspan x="1201.5" dy="0">운행 안내</tspan></text><line x1="1041" y1="274" x2="1041" y2="330" class="grid"/><line x1="78" y1="330" x2="1362" y2="330" class="grid"/><rect x="78" y="330" width="6" height="46" fill="#e15a2b"/><rect x="86" y="338" width="305" height="30" rx="8" fill="#e15a2b" opacity=".13"/><text x="238.5" y="358" text-anchor="middle" class="td gradeText"><tspan x="238.5" dy="0">경북순환 ITX-마음</tspan></text><text x="559.5" y="358" text-anchor="middle" class="td"><tspan x="559.5" dy="0">#4451~#4458</tspan></text><line x1="399" y1="330" x2="399" y2="376" class="grid"/><text x="880.5" y="358" text-anchor="middle" class="td"><tspan x="880.5" dy="0">하루 8회</tspan></text><line x1="720" y1="330" x2="720" y2="376" class="grid"/><text x="1201.5" y="358" text-anchor="middle" class="td"><tspan x="1201.5" dy="0">남대구 출발 순환 운행</tspan></text><line x1="1041" y1="330" x2="1041" y2="376" class="grid"/><line x1="78" y1="376" x2="1362" y2="376" class="grid"/><rect x="78" y="376" width="1284" height="46" fill="#faf9f6"/><rect x="78" y="376" width="6" height="46" fill="#e15a2b"/><rect x="86" y="384" width="305" height="30" rx="8" fill="#e15a2b" opacity=".13"/><text x="238.5" y="404" text-anchor="middle" class="td gradeText"><tspan x="238.5" dy="0">충주 ↔ 남대구 ITX-마음</tspan></text><text x="559.5" y="404" text-anchor="middle" class="td"><tspan x="559.5" dy="0">#1885~#1888</tspan></text><line x1="399" y1="376" x2="399" y2="422" class="grid"/><text x="880.5" y="404" text-anchor="middle" class="td"><tspan x="880.5" dy="0">2회 왕복</tspan></text><line x1="720" y1="376" x2="720" y2="422" class="grid"/><text x="1201.5" y="404" text-anchor="middle" class="td"><tspan x="1201.5" dy="0">이른 첫차·늦은 막차</tspan></text><line x1="1041" y1="376" x2="1041" y2="422" class="grid"/><rect x="78" y="476" width="1284" height="68" rx="9" fill="#eef3fb" stroke="#b6c7e2"/><circle cx="103" cy="504" r="5" fill="#2456a6"/><text x="120" y="510" class="callout">경북순환과 충주–남대구 열차는 같은 2개 편성이 연결 운행합니다.</text><text x="78" y="584" class="foot">※ 실제 운행 시각은 앱의 열차 상세 시간표에서 다시 확인해 주세요.</text></svg>