<?xml version="1.0" encoding="UTF-8"?>
<svg xmlns="http://www.w3.org/2000/svg" width="1440" height="968" viewBox="0 0 1440 968"><style>
    .brand{font:700 14px Arial,sans-serif;letter-spacing:2px;fill:#2456a6}
    .title{font:800 31px 'Apple SD Gothic Neo','Noto Sans CJK KR',sans-serif;fill:#151515}
    .subtitle{font:500 18px 'Apple SD Gothic Neo','Noto Sans CJK KR',sans-serif;fill:#53565a}
    .date{font:600 15px 'Apple SD Gothic Neo','Noto Sans CJK KR',sans-serif;fill:#555}
    .section{font:800 22px 'Apple SD Gothic Neo','Noto Sans CJK KR',sans-serif;fill:#171717}
    .th{font:850 16px 'Apple SD Gothic Neo','Noto Sans CJK KR',sans-serif}.headerText{fill:#fff}
    .td{font:650 16px 'Apple SD Gothic Neo','Noto Sans CJK KR',sans-serif;fill:#202124}.gradeText{font-weight:850}
    .callout{font:650 15px 'Apple SD Gothic Neo','Noto Sans CJK KR',sans-serif;fill:#24344d}
    .foot{font:500 13px 'Apple SD Gothic Neo','Noto Sans CJK KR',sans-serif;fill:#666}
    .grid{stroke:#b8b6b0;stroke-width:1}
  </style><rect width="1440" height="968" fill="#f4f1e9"/><rect x="38" y="38" width="1364" height="892" rx="8" fill="#fff" stroke="#d3cec2" stroke-width="2"/><text x="78" y="90" class="brand">NIMBYRAIL PASSENGER INFORMATION</text><text x="78" y="142" class="title">[붙임] 호남고속선 KTX 신설 운행계획</text><text x="78" y="181" class="subtitle">서울–목포 급행·일반·완행 60편</text><text x="1362" y="142" text-anchor="end" class="date">2026-07-03 기준</text><rect x="78" y="220" width="1284" height="42" rx="9" fill="#2456a6" opacity=".10"/><rect x="78" y="220" width="9" height="42" rx="5" fill="#2456a6"/><text x="102" y="249" class="section">계통 (정차역 차등)</text><rect x="78" y="274" width="1284" height="194" fill="#fff" stroke="#555" stroke-width="1.5"/><rect x="78" y="274" width="1284" height="56" fill="#30343b"/><text x="238.5" y="307" text-anchor="middle" class="th headerText"><tspan x="238.5" dy="0">계통</tspan></text><text x="559.5" y="307" text-anchor="middle" class="th headerText"><tspan x="559.5" dy="0">성격</tspan></text><line x1="399" y1="274" x2="399" y2="330" class="grid"/><text x="880.5" y="307" text-anchor="middle" class="th headerText"><tspan x="880.5" dy="0">주요 정차</tspan></text><line x1="720" y1="274" x2="720" y2="330" class="grid"/><text x="1201.5" y="307" text-anchor="middle" class="th headerText"><tspan x="1201.5" dy="0">편성</tspan></text><line x1="1041" y1="274" x2="1041" y2="330" class="grid"/><line x1="78" y1="330" x2="1362" y2="330" class="grid"/><rect x="78" y="330" width="6" height="46" fill="#2456a6"/><text x="238.5" y="358" text-anchor="middle" class="td"><tspan x="238.5" dy="0">/1</tspan></text><text x="559.5" y="358" text-anchor="middle" class="td"><tspan x="559.5" dy="0">급행</tspan></text><line x1="399" y1="330" x2="399" y2="376" class="grid"/><text x="880.5" y="358" text-anchor="middle" class="td"><tspan x="880.5" dy="0">서울·수영·천안·전주·광주</tspan></text><line x1="720" y1="330" x2="720" y2="376" class="grid"/><text x="1201.5" y="358" text-anchor="middle" class="td"><tspan x="1201.5" dy="0">22편</tspan></text><line x1="1041" y1="330" x2="1041" y2="376" class="grid"/><line x1="78" y1="376" x2="1362" y2="376" class="grid"/><rect x="78" y="376" width="1284" height="46" fill="#faf9f6"/><rect x="78" y="376" width="6" height="46" fill="#2456a6"/><text x="238.5" y="404" text-anchor="middle" class="td"><tspan x="238.5" dy="0">/2</tspan></text><text x="559.5" y="404" text-anchor="middle" class="td"><tspan x="559.5" dy="0">일반</tspan></text><line x1="399" y1="376" x2="399" y2="422" class="grid"/><text x="880.5" y="404" text-anchor="middle" class="td"><tspan x="880.5" dy="0">+공주·함평·무안</tspan></text><line x1="720" y1="376" x2="720" y2="422" class="grid"/><text x="1201.5" y="404" text-anchor="middle" class="td"><tspan x="1201.5" dy="0">28편</tspan></text><line x1="1041" y1="376" x2="1041" y2="422" class="grid"/><line x1="78" y1="422" x2="1362" y2="422" class="grid"/><rect x="78" y="422" width="6" height="46" fill="#2456a6"/><text x="238.5" y="450" text-anchor="middle" class="td"><tspan x="238.5" dy="0">/3</tspan></text><text x="559.5" y="450" text-anchor="middle" class="td"><tspan x="559.5" dy="0">완행</tspan></text><line x1="399" y1="422" x2="399" y2="468" class="grid"/><text x="880.5" y="450" text-anchor="middle" class="td"><tspan x="880.5" dy="0">+병목안·정안·정읍</tspan></text><line x1="720" y1="422" x2="720" y2="468" class="grid"/><text x="1201.5" y="450" text-anchor="middle" class="td"><tspan x="1201.5" dy="0">10편</tspan></text><line x1="1041" y1="422" x2="1041" y2="468" class="grid"/><rect x="78" y="522" width="1284" height="42" rx="9" fill="#2456a6" opacity=".10"/><rect x="78" y="522" width="9" height="42" rx="5" fill="#2456a6"/><text x="102" y="551" class="section">운행 시각</text><rect x="78" y="576" width="1284" height="148" fill="#fff" stroke="#555" stroke-width="1.5"/><rect x="78" y="576" width="1284" height="56" fill="#30343b"/><text x="238.5" y="609" text-anchor="middle" class="th headerText"><tspan x="238.5" dy="0">방면</tspan></text><text x="559.5" y="609" text-anchor="middle" class="th headerText"><tspan x="559.5" dy="0">첫차</tspan></text><line x1="399" y1="576" x2="399" y2="632" class="grid"/><text x="880.5" y="609" text-anchor="middle" class="th headerText"><tspan x="880.5" dy="0">막차(종착 도착)</tspan></text><line x1="720" y1="576" x2="720" y2="632" class="grid"/><text x="1201.5" y="609" text-anchor="middle" class="th headerText"><tspan x="1201.5" dy="0">배차</tspan></text><line x1="1041" y1="576" x2="1041" y2="632" class="grid"/><line x1="78" y1="632" x2="1362" y2="632" class="grid"/><rect x="78" y="632" width="6" height="46" fill="#2456a6"/><text x="238.5" y="660" text-anchor="middle" class="td"><tspan x="238.5" dy="0">목포행(하행)</tspan></text><text x="559.5" y="660" text-anchor="middle" class="td"><tspan x="559.5" dy="0">서울 05:40</tspan></text><line x1="399" y1="632" x2="399" y2="678" class="grid"/><text x="880.5" y="660" text-anchor="middle" class="td"><tspan x="880.5" dy="0">서울 23:24 → 목포 00:51</tspan></text><line x1="720" y1="632" x2="720" y2="678" class="grid"/><text x="1201.5" y="660" text-anchor="middle" class="td"><tspan x="1201.5" dy="0">약 30~40분</tspan></text><line x1="1041" y1="632" x2="1041" y2="678" class="grid"/><line x1="78" y1="678" x2="1362" y2="678" class="grid"/><rect x="78" y="678" width="1284" height="46" fill="#faf9f6"/><rect x="78" y="678" width="6" height="46" fill="#2456a6"/><text x="238.5" y="706" text-anchor="middle" class="td"><tspan x="238.5" dy="0">서울행(상행)</tspan></text><text x="559.5" y="706" text-anchor="middle" class="td"><tspan x="559.5" dy="0">목포 05:48</tspan></text><line x1="399" y1="678" x2="399" y2="724" class="grid"/><text x="880.5" y="706" text-anchor="middle" class="td"><tspan x="880.5" dy="0">목포 23:25 → 서울 00:52</tspan></text><line x1="720" y1="678" x2="720" y2="724" class="grid"/><text x="1201.5" y="706" text-anchor="middle" class="td"><tspan x="1201.5" dy="0">약 30~40분</tspan></text><line x1="1041" y1="678" x2="1041" y2="724" class="grid"/><rect x="78" y="778" width="1284" height="68" rx="9" fill="#eef3fb" stroke="#b6c7e2"/><circle cx="103" cy="806" r="5" fill="#2456a6"/><text x="120" y="812" class="callout">정차역이 다른 3개 계통을 통합해 약 30~40분 간격으로 운행</text><text x="78" y="886" class="foot">※ 실제 운행 시각은 앱의 열차 상세 시간표에서 다시 확인해 주세요.</text></svg>