<?xml version="1.0" encoding="UTF-8"?>
<svg xmlns="http://www.w3.org/2000/svg" width="1440" height="4237" viewBox="0 0 1440 4237"><style>
    .brand{font:700 14px Arial,sans-serif;letter-spacing:2px;fill:#2456a6}
    .title{font:800 31px 'Apple SD Gothic Neo','Noto Sans CJK KR',sans-serif;fill:#151515}
    .subtitle{font:500 18px 'Apple SD Gothic Neo','Noto Sans CJK KR',sans-serif;fill:#53565a}
    .date{font:600 15px 'Apple SD Gothic Neo','Noto Sans CJK KR',sans-serif;fill:#555}
    .group{font:800 24px 'Apple SD Gothic Neo','Noto Sans CJK KR',sans-serif;fill:#171717}
    .groupCount{font:600 15px 'Apple SD Gothic Neo','Noto Sans CJK KR',sans-serif;fill:#666}
    .direction{font:800 18px 'Apple SD Gothic Neo','Noto Sans CJK KR',sans-serif;fill:#202124}
    .th,.trainNo{font:800 16px 'Apple SD Gothic Neo','Noto Sans CJK KR',sans-serif;fill:#202124}
    .dest{font:700 12px 'Apple SD Gothic Neo','Noto Sans CJK KR',sans-serif;fill:#555}
    .station{font:700 15px 'Apple SD Gothic Neo','Noto Sans CJK KR',sans-serif;fill:#202124}
    .time{font:600 14px 'JetBrains Mono','SFMono-Regular',monospace;fill:#202124}
    .time.pass{fill:#9a9a9a;font-weight:500}.time.missing{fill:#c9c6bf}.time.terminal{font-weight:800}
    .grid{stroke:#b8b6b0;stroke-width:1}.foot{font:500 13px 'Apple SD Gothic Neo','Noto Sans CJK KR',sans-serif;fill:#666}
  </style><rect width="1440" height="4237" fill="#f4f1e9"/><rect x="38" y="38" width="1364" height="4161" rx="8" fill="#fff" stroke="#d3cec2" stroke-width="2"/><text x="72" y="92" class="brand">NIMBYRAIL PASSENGER INFORMATION</text><text x="72" y="142" class="title">[붙임] 경북순환·충주–남대구 운행계획</text><text x="72" y="181" class="subtitle">ITX-마음 신설 전체 시간표 · 12편</text><text x="1368" y="142" text-anchor="end" class="date">2026.07.31 기준</text><rect x="72" y="220" width="8" height="34" rx="4" fill="#e05a33"/><text x="94" y="246" class="group">경북순환 ITX-마음</text><text x="1368" y="245" text-anchor="end" class="groupCount">8편 · ITX-마음</text><text x="72" y="294" class="direction">하행 · 남대구 → 남대구</text><rect x="72" y="308" width="1296" height="1066" fill="#fff" stroke="#5f6368" stroke-width="1.5"/><rect x="72" y="308" width="1296" height="58" fill="#ecebe7"/><text x="167" y="344" text-anchor="middle" class="th">역명</text><rect x="262" y="308" width="184.33333333333334" height="58" fill="#e05a33" opacity=".10"/><text x="354.1666666666667" y="333" text-anchor="middle" class="trainNo">#4451</text><text x="354.1666666666667" y="353" text-anchor="middle" class="dest">남대구행</text><rect x="446.33333333333337" y="308" width="184.33333333333334" height="58" fill="#e05a33" opacity=".10"/><text x="538.5" y="333" text-anchor="middle" class="trainNo">#4453</text><text x="538.5" y="353" text-anchor="middle" class="dest">남대구행</text><rect x="630.6666666666667" y="308" width="184.33333333333334" height="58" fill="#e05a33" opacity=".10"/><text x="722.8333333333334" y="333" text-anchor="middle" class="trainNo">#4455</text><text x="722.8333333333334" y="353" text-anchor="middle" class="dest">남대구행</text><rect x="815" y="308" width="184.33333333333334" height="58" fill="#e05a33" opacity=".10"/><text x="907.1666666666666" y="333" text-anchor="middle" class="trainNo">#4457</text><text x="907.1666666666666" y="353" text-anchor="middle" class="dest">남대구행</text><line x1="262" y1="308" x2="262" y2="1374" class="grid"/><line x1="446.33333333333337" y1="308" x2="446.33333333333337" y2="1374" class="grid"/><line x1="630.6666666666667" y1="308" x2="630.6666666666667" y2="1374" class="grid"/><line x1="815" y1="308" x2="815" y2="1374" class="grid"/><line x1="999.3333333333334" y1="308" x2="999.3333333333334" y2="1374" class="grid"/><line x1="72" y1="366" x2="1368" y2="366" class="grid"/><text x="90" y="394" class="station">남대구</text><text x="354.1666666666667" y="393" text-anchor="middle" class="time terminal">6:29 출발</text><text x="538.5" y="393" text-anchor="middle" class="time terminal">9:57 출발</text><text x="722.8333333333334" y="393" text-anchor="middle" class="time terminal">13:25 출발</text><text x="907.1666666666666" y="393" text-anchor="middle" class="time terminal">17:57 출발</text><rect x="72" y="408" width="1296" height="42" fill="#faf9f6"/><line x1="72" y1="408" x2="1368" y2="408" class="grid"/><text x="90" y="436" class="station">경산</text><text x="354.1666666666667" y="435" text-anchor="middle" class="time stop">6:38–6:39</text><text x="538.5" y="435" text-anchor="middle" class="time stop">10:06–10:07</text><text x="722.8333333333334" y="435" text-anchor="middle" class="time stop">13:34–13:35</text><text x="907.1666666666666" y="435" text-anchor="middle" class="time stop">18:06–18:07</text><line x1="72" y1="450" x2="1368" y2="450" class="grid"/><text x="90" y="478" class="station">하양</text><text x="354.1666666666667" y="477" text-anchor="middle" class="time stop">6:47–6:48</text><text x="538.5" y="477" text-anchor="middle" class="time stop">10:15–10:16</text><text x="722.8333333333334" y="477" text-anchor="middle" class="time stop">13:43–13:44</text><text x="907.1666666666666" y="477" text-anchor="middle" class="time stop">18:15–18:16</text><rect x="72" y="492" width="1296" height="42" fill="#faf9f6"/><line x1="72" y1="492" x2="1368" y2="492" class="grid"/><text x="90" y="520" class="station">신녕</text><text x="354.1666666666667" y="519" text-anchor="middle" class="time pass">6:56 통과</text><text x="538.5" y="519" text-anchor="middle" class="time pass">10:24 통과</text><text x="722.8333333333334" y="519" text-anchor="middle" class="time pass">13:52 통과</text><text x="907.1666666666666" y="519" text-anchor="middle" class="time pass">18:24 통과</text><line x1="72" y1="534" x2="1368" y2="534" class="grid"/><text x="90" y="562" class="station">화본</text><text x="354.1666666666667" y="561" text-anchor="middle" class="time pass">7:01 통과</text><text x="538.5" y="561" text-anchor="middle" class="time pass">10:29 통과</text><text x="722.8333333333334" y="561" text-anchor="middle" class="time pass">13:57 통과</text><text x="907.1666666666666" y="561" text-anchor="middle" class="time pass">18:29 통과</text><rect x="72" y="576" width="1296" height="42" fill="#faf9f6"/><line x1="72" y1="576" x2="1368" y2="576" class="grid"/><text x="90" y="604" class="station">이화</text><text x="354.1666666666667" y="603" text-anchor="middle" class="time stop">7:05–7:07</text><text x="538.5" y="603" text-anchor="middle" class="time stop">10:33–10:35</text><text x="722.8333333333334" y="603" text-anchor="middle" class="time stop">14:01–14:03</text><text x="907.1666666666666" y="603" text-anchor="middle" class="time stop">18:33–18:35</text><line x1="72" y1="618" x2="1368" y2="618" class="grid"/><text x="90" y="646" class="station">금성</text><text x="354.1666666666667" y="645" text-anchor="middle" class="time pass">7:11 통과</text><text x="538.5" y="645" text-anchor="middle" class="time pass">10:39 통과</text><text x="722.8333333333334" y="645" text-anchor="middle" class="time pass">14:07 통과</text><text x="907.1666666666666" y="645" text-anchor="middle" class="time pass">18:39 통과</text><rect x="72" y="660" width="1296" height="42" fill="#faf9f6"/><line x1="72" y1="660" x2="1368" y2="660" class="grid"/><text x="90" y="688" class="station">의성</text><text x="354.1666666666667" y="687" text-anchor="middle" class="time stop">7:16–7:17</text><text x="538.5" y="687" text-anchor="middle" class="time stop">10:44–10:45</text><text x="722.8333333333334" y="687" text-anchor="middle" class="time stop">14:12–14:13</text><text x="907.1666666666666" y="687" text-anchor="middle" class="time stop">18:44–18:45</text><line x1="72" y1="702" x2="1368" y2="702" class="grid"/><text x="90" y="730" class="station">안동</text><text x="354.1666666666667" y="729" text-anchor="middle" class="time stop">7:28–7:30</text><text x="538.5" y="729" text-anchor="middle" class="time stop">10:56–10:58</text><text x="722.8333333333334" y="729" text-anchor="middle" class="time stop">14:24–14:26</text><text x="907.1666666666666" y="729" text-anchor="middle" class="time stop">18:56–18:58</text><rect x="72" y="744" width="1296" height="42" fill="#faf9f6"/><line x1="72" y1="744" x2="1368" y2="744" class="grid"/><text x="90" y="772" class="station">옹천</text><text x="354.1666666666667" y="771" text-anchor="middle" class="time pass">7:37 통과</text><text x="538.5" y="771" text-anchor="middle" class="time pass">11:05 통과</text><text x="722.8333333333334" y="771" text-anchor="middle" class="time pass">14:33 통과</text><text x="907.1666666666666" y="771" text-anchor="middle" class="time pass">19:05 통과</text><line x1="72" y1="786" x2="1368" y2="786" class="grid"/><text x="90" y="814" class="station">장수</text><text x="354.1666666666667" y="813" text-anchor="middle" class="time stop">7:46–7:47</text><text x="538.5" y="813" text-anchor="middle" class="time stop">11:14–11:15</text><text x="722.8333333333334" y="813" text-anchor="middle" class="time stop">14:42–14:43</text><text x="907.1666666666666" y="813" text-anchor="middle" class="time stop">19:14–19:15</text><rect x="72" y="828" width="1296" height="42" fill="#faf9f6"/><line x1="72" y1="828" x2="1368" y2="828" class="grid"/><text x="90" y="856" class="station">예천</text><text x="354.1666666666667" y="855" text-anchor="middle" class="time stop">7:56–7:57</text><text x="538.5" y="855" text-anchor="middle" class="time stop">11:24–11:25</text><text x="722.8333333333334" y="855" text-anchor="middle" class="time stop">14:52–14:53</text><text x="907.1666666666666" y="855" text-anchor="middle" class="time stop">19:24–19:25</text><line x1="72" y1="870" x2="1368" y2="870" class="grid"/><text x="90" y="898" class="station">용궁</text><text x="354.1666666666667" y="897" text-anchor="middle" class="time stop">8:04–8:05</text><text x="538.5" y="897" text-anchor="middle" class="time stop">11:32–11:33</text><text x="722.8333333333334" y="897" text-anchor="middle" class="time stop">15:00–15:01</text><text x="907.1666666666666" y="897" text-anchor="middle" class="time stop">19:32–19:33</text><rect x="72" y="912" width="1296" height="42" fill="#faf9f6"/><line x1="72" y1="912" x2="1368" y2="912" class="grid"/><text x="90" y="940" class="station">남문경</text><text x="354.1666666666667" y="939" text-anchor="middle" class="time stop">8:11–8:12</text><text x="538.5" y="939" text-anchor="middle" class="time stop">11:39–11:40</text><text x="722.8333333333334" y="939" text-anchor="middle" class="time stop">15:07–15:08</text><text x="907.1666666666666" y="939" text-anchor="middle" class="time stop">19:39–19:40</text><line x1="72" y1="954" x2="1368" y2="954" class="grid"/><text x="90" y="982" class="station">상주</text><text x="354.1666666666667" y="981" text-anchor="middle" class="time stop">8:21–8:23</text><text x="538.5" y="981" text-anchor="middle" class="time stop">11:49–11:51</text><text x="722.8333333333334" y="981" text-anchor="middle" class="time stop">15:17–15:19</text><text x="907.1666666666666" y="981" text-anchor="middle" class="time stop">19:49–19:51</text><rect x="72" y="996" width="1296" height="42" fill="#faf9f6"/><line x1="72" y1="996" x2="1368" y2="996" class="grid"/><text x="90" y="1024" class="station">청리</text><text x="354.1666666666667" y="1023" text-anchor="middle" class="time stop">8:28–8:29</text><text x="538.5" y="1023" text-anchor="middle" class="time stop">11:56–11:57</text><text x="722.8333333333334" y="1023" text-anchor="middle" class="time stop">15:24–15:25</text><text x="907.1666666666666" y="1023" text-anchor="middle" class="time stop">19:56–19:57</text><line x1="72" y1="1038" x2="1368" y2="1038" class="grid"/><text x="90" y="1066" class="station">옥산</text><text x="354.1666666666667" y="1065" text-anchor="middle" class="time pass">8:33 통과</text><text x="538.5" y="1065" text-anchor="middle" class="time pass">12:01 통과</text><text x="722.8333333333334" y="1065" text-anchor="middle" class="time pass">15:29 통과</text><text x="907.1666666666666" y="1065" text-anchor="middle" class="time pass">20:01 통과</text><rect x="72" y="1080" width="1296" height="42" fill="#faf9f6"/><line x1="72" y1="1080" x2="1368" y2="1080" class="grid"/><text x="90" y="1108" class="station">김천</text><text x="354.1666666666667" y="1107" text-anchor="middle" class="time stop">8:42–8:43</text><text x="538.5" y="1107" text-anchor="middle" class="time stop">12:10–12:11</text><text x="722.8333333333334" y="1107" text-anchor="middle" class="time stop">15:38–15:39</text><text x="907.1666666666666" y="1107" text-anchor="middle" class="time stop">20:10–20:11</text><line x1="72" y1="1122" x2="1368" y2="1122" class="grid"/><text x="90" y="1150" class="station">구미</text><text x="354.1666666666667" y="1149" text-anchor="middle" class="time stop">8:53–8:55</text><text x="538.5" y="1149" text-anchor="middle" class="time stop">12:21–12:23</text><text x="722.8333333333334" y="1149" text-anchor="middle" class="time stop">15:49–15:51</text><text x="907.1666666666666" y="1149" text-anchor="middle" class="time stop">20:21–20:23</text><rect x="72" y="1164" width="1296" height="42" fill="#faf9f6"/><line x1="72" y1="1164" x2="1368" y2="1164" class="grid"/><text x="90" y="1192" class="station">약목</text><text x="354.1666666666667" y="1191" text-anchor="middle" class="time pass">9:00 통과</text><text x="538.5" y="1191" text-anchor="middle" class="time pass">12:28 통과</text><text x="722.8333333333334" y="1191" text-anchor="middle" class="time pass">15:56 통과</text><text x="907.1666666666666" y="1191" text-anchor="middle" class="time pass">20:28 통과</text><line x1="72" y1="1206" x2="1368" y2="1206" class="grid"/><text x="90" y="1234" class="station">서왜관</text><text x="354.1666666666667" y="1233" text-anchor="middle" class="time pass">9:03 통과</text><text x="538.5" y="1233" text-anchor="middle" class="time pass">12:31 통과</text><text x="722.8333333333334" y="1233" text-anchor="middle" class="time pass">15:59 통과</text><text x="907.1666666666666" y="1233" text-anchor="middle" class="time pass">20:31 통과</text><rect x="72" y="1248" width="1296" height="42" fill="#faf9f6"/><line x1="72" y1="1248" x2="1368" y2="1248" class="grid"/><text x="90" y="1276" class="station">하빈</text><text x="354.1666666666667" y="1275" text-anchor="middle" class="time pass">9:08 통과</text><text x="538.5" y="1275" text-anchor="middle" class="time pass">12:36 통과</text><text x="722.8333333333334" y="1275" text-anchor="middle" class="time pass">16:04 통과</text><text x="907.1666666666666" y="1275" text-anchor="middle" class="time pass">20:36 통과</text><line x1="72" y1="1290" x2="1368" y2="1290" class="grid"/><text x="90" y="1318" class="station">호림</text><text x="354.1666666666667" y="1317" text-anchor="middle" class="time pass">9:12 통과</text><text x="538.5" y="1317" text-anchor="middle" class="time pass">12:40 통과</text><text x="722.8333333333334" y="1317" text-anchor="middle" class="time pass">16:08 통과</text><text x="907.1666666666666" y="1317" text-anchor="middle" class="time pass">20:40 통과</text><rect x="72" y="1332" width="1296" height="42" fill="#faf9f6"/><line x1="72" y1="1332" x2="1368" y2="1332" class="grid"/><text x="90" y="1360" class="station">남대구(도착)</text><text x="354.1666666666667" y="1359" text-anchor="middle" class="time terminal">9:16 도착</text><text x="538.5" y="1359" text-anchor="middle" class="time terminal">12:44 도착</text><text x="722.8333333333334" y="1359" text-anchor="middle" class="time terminal">16:12 도착</text><text x="907.1666666666666" y="1359" text-anchor="middle" class="time terminal">20:44 도착</text><text x="72" y="1424" class="direction">상행 · 남대구 → 남대구</text><rect x="72" y="1438" width="1296" height="1066" fill="#fff" stroke="#5f6368" stroke-width="1.5"/><rect x="72" y="1438" width="1296" height="58" fill="#ecebe7"/><text x="167" y="1474" text-anchor="middle" class="th">역명</text><rect x="262" y="1438" width="184.33333333333334" height="58" fill="#e05a33" opacity=".10"/><text x="354.1666666666667" y="1463" text-anchor="middle" class="trainNo">#4452</text><text x="354.1666666666667" y="1483" text-anchor="middle" class="dest">남대구행</text><rect x="446.33333333333337" y="1438" width="184.33333333333334" height="58" fill="#e05a33" opacity=".10"/><text x="538.5" y="1463" text-anchor="middle" class="trainNo">#4454</text><text x="538.5" y="1483" text-anchor="middle" class="dest">남대구행</text><rect x="630.6666666666667" y="1438" width="184.33333333333334" height="58" fill="#e05a33" opacity=".10"/><text x="722.8333333333334" y="1463" text-anchor="middle" class="trainNo">#4456</text><text x="722.8333333333334" y="1483" text-anchor="middle" class="dest">남대구행</text><rect x="815" y="1438" width="184.33333333333334" height="58" fill="#e05a33" opacity=".10"/><text x="907.1666666666666" y="1463" text-anchor="middle" class="trainNo">#4458</text><text x="907.1666666666666" y="1483" text-anchor="middle" class="dest">남대구행</text><line x1="262" y1="1438" x2="262" y2="2504" class="grid"/><line x1="446.33333333333337" y1="1438" x2="446.33333333333337" y2="2504" class="grid"/><line x1="630.6666666666667" y1="1438" x2="630.6666666666667" y2="2504" class="grid"/><line x1="815" y1="1438" x2="815" y2="2504" class="grid"/><line x1="999.3333333333334" y1="1438" x2="999.3333333333334" y2="2504" class="grid"/><line x1="72" y1="1496" x2="1368" y2="1496" class="grid"/><text x="90" y="1524" class="station">남대구</text><text x="354.1666666666667" y="1523" text-anchor="middle" class="time terminal">6:07 출발</text><text x="538.5" y="1523" text-anchor="middle" class="time terminal">11:01 출발</text><text x="722.8333333333334" y="1523" text-anchor="middle" class="time terminal">15:48 출발</text><text x="907.1666666666666" y="1523" text-anchor="middle" class="time terminal">20:39 출발</text><rect x="72" y="1538" width="1296" height="42" fill="#faf9f6"/><line x1="72" y1="1538" x2="1368" y2="1538" class="grid"/><text x="90" y="1566" class="station">호림</text><text x="354.1666666666667" y="1565" text-anchor="middle" class="time pass">6:10 통과</text><text x="538.5" y="1565" text-anchor="middle" class="time pass">11:04 통과</text><text x="722.8333333333334" y="1565" text-anchor="middle" class="time pass">15:51 통과</text><text x="907.1666666666666" y="1565" text-anchor="middle" class="time pass">20:42 통과</text><line x1="72" y1="1580" x2="1368" y2="1580" class="grid"/><text x="90" y="1608" class="station">하빈</text><text x="354.1666666666667" y="1607" text-anchor="middle" class="time pass">6:14 통과</text><text x="538.5" y="1607" text-anchor="middle" class="time pass">11:08 통과</text><text x="722.8333333333334" y="1607" text-anchor="middle" class="time pass">15:55 통과</text><text x="907.1666666666666" y="1607" text-anchor="middle" class="time pass">20:46 통과</text><rect x="72" y="1622" width="1296" height="42" fill="#faf9f6"/><line x1="72" y1="1622" x2="1368" y2="1622" class="grid"/><text x="90" y="1650" class="station">서왜관</text><text x="354.1666666666667" y="1649" text-anchor="middle" class="time pass">6:19 통과</text><text x="538.5" y="1649" text-anchor="middle" class="time pass">11:13 통과</text><text x="722.8333333333334" y="1649" text-anchor="middle" class="time pass">16:00 통과</text><text x="907.1666666666666" y="1649" text-anchor="middle" class="time pass">20:51 통과</text><line x1="72" y1="1664" x2="1368" y2="1664" class="grid"/><text x="90" y="1692" class="station">약목</text><text x="354.1666666666667" y="1691" text-anchor="middle" class="time pass">6:22 통과</text><text x="538.5" y="1691" text-anchor="middle" class="time pass">11:16 통과</text><text x="722.8333333333334" y="1691" text-anchor="middle" class="time pass">16:03 통과</text><text x="907.1666666666666" y="1691" text-anchor="middle" class="time pass">20:54 통과</text><rect x="72" y="1706" width="1296" height="42" fill="#faf9f6"/><line x1="72" y1="1706" x2="1368" y2="1706" class="grid"/><text x="90" y="1734" class="station">구미</text><text x="354.1666666666667" y="1733" text-anchor="middle" class="time stop">6:27–6:28</text><text x="538.5" y="1733" text-anchor="middle" class="time stop">11:21–11:22</text><text x="722.8333333333334" y="1733" text-anchor="middle" class="time stop">16:08–16:09</text><text x="907.1666666666666" y="1733" text-anchor="middle" class="time stop">20:59–21:00</text><line x1="72" y1="1748" x2="1368" y2="1748" class="grid"/><text x="90" y="1776" class="station">김천</text><text x="354.1666666666667" y="1775" text-anchor="middle" class="time stop">6:38–6:40</text><text x="538.5" y="1775" text-anchor="middle" class="time stop">11:32–11:34</text><text x="722.8333333333334" y="1775" text-anchor="middle" class="time stop">16:19–16:21</text><text x="907.1666666666666" y="1775" text-anchor="middle" class="time stop">21:10–21:12</text><rect x="72" y="1790" width="1296" height="42" fill="#faf9f6"/><line x1="72" y1="1790" x2="1368" y2="1790" class="grid"/><text x="90" y="1818" class="station">옥산</text><text x="354.1666666666667" y="1817" text-anchor="middle" class="time pass">6:49 통과</text><text x="538.5" y="1817" text-anchor="middle" class="time pass">11:43 통과</text><text x="722.8333333333334" y="1817" text-anchor="middle" class="time pass">16:30 통과</text><text x="907.1666666666666" y="1817" text-anchor="middle" class="time pass">21:21 통과</text><line x1="72" y1="1832" x2="1368" y2="1832" class="grid"/><text x="90" y="1860" class="station">청리</text><text x="354.1666666666667" y="1859" text-anchor="middle" class="time stop">6:52–6:53</text><text x="538.5" y="1859" text-anchor="middle" class="time stop">11:46–11:47</text><text x="722.8333333333334" y="1859" text-anchor="middle" class="time stop">16:33–16:34</text><text x="907.1666666666666" y="1859" text-anchor="middle" class="time stop">21:24–21:25</text><rect x="72" y="1874" width="1296" height="42" fill="#faf9f6"/><line x1="72" y1="1874" x2="1368" y2="1874" class="grid"/><text x="90" y="1902" class="station">상주</text><text x="354.1666666666667" y="1901" text-anchor="middle" class="time stop">6:59–7:00</text><text x="538.5" y="1901" text-anchor="middle" class="time stop">11:53–11:54</text><text x="722.8333333333334" y="1901" text-anchor="middle" class="time stop">16:40–16:41</text><text x="907.1666666666666" y="1901" text-anchor="middle" class="time stop">21:31–21:32</text><line x1="72" y1="1916" x2="1368" y2="1916" class="grid"/><text x="90" y="1944" class="station">남문경</text><text x="354.1666666666667" y="1943" text-anchor="middle" class="time stop">7:09–7:11</text><text x="538.5" y="1943" text-anchor="middle" class="time stop">12:03–12:05</text><text x="722.8333333333334" y="1943" text-anchor="middle" class="time stop">16:50–16:52</text><text x="907.1666666666666" y="1943" text-anchor="middle" class="time stop">21:41–21:43</text><rect x="72" y="1958" width="1296" height="42" fill="#faf9f6"/><line x1="72" y1="1958" x2="1368" y2="1958" class="grid"/><text x="90" y="1986" class="station">용궁</text><text x="354.1666666666667" y="1985" text-anchor="middle" class="time stop">7:16–7:18</text><text x="538.5" y="1985" text-anchor="middle" class="time stop">12:10–12:12</text><text x="722.8333333333334" y="1985" text-anchor="middle" class="time stop">16:57–16:59</text><text x="907.1666666666666" y="1985" text-anchor="middle" class="time stop">21:48–21:50</text><line x1="72" y1="2000" x2="1368" y2="2000" class="grid"/><text x="90" y="2028" class="station">예천</text><text x="354.1666666666667" y="2027" text-anchor="middle" class="time stop">7:25–7:26</text><text x="538.5" y="2027" text-anchor="middle" class="time stop">12:19–12:20</text><text x="722.8333333333334" y="2027" text-anchor="middle" class="time stop">17:06–17:07</text><text x="907.1666666666666" y="2027" text-anchor="middle" class="time stop">21:57–21:58</text><rect x="72" y="2042" width="1296" height="42" fill="#faf9f6"/><line x1="72" y1="2042" x2="1368" y2="2042" class="grid"/><text x="90" y="2070" class="station">장수</text><text x="354.1666666666667" y="2069" text-anchor="middle" class="time stop">7:35–7:36</text><text x="538.5" y="2069" text-anchor="middle" class="time stop">12:29–12:30</text><text x="722.8333333333334" y="2069" text-anchor="middle" class="time stop">17:16–17:17</text><text x="907.1666666666666" y="2069" text-anchor="middle" class="time stop">22:07–22:08</text><line x1="72" y1="2084" x2="1368" y2="2084" class="grid"/><text x="90" y="2112" class="station">옹천</text><text x="354.1666666666667" y="2111" text-anchor="middle" class="time pass">7:45 통과</text><text x="538.5" y="2111" text-anchor="middle" class="time pass">12:39 통과</text><text x="722.8333333333334" y="2111" text-anchor="middle" class="time pass">17:26 통과</text><text x="907.1666666666666" y="2111" text-anchor="middle" class="time pass">22:17 통과</text><rect x="72" y="2126" width="1296" height="42" fill="#faf9f6"/><line x1="72" y1="2126" x2="1368" y2="2126" class="grid"/><text x="90" y="2154" class="station">안동</text><text x="354.1666666666667" y="2153" text-anchor="middle" class="time stop">7:52–7:53</text><text x="538.5" y="2153" text-anchor="middle" class="time stop">12:46–12:47</text><text x="722.8333333333334" y="2153" text-anchor="middle" class="time stop">17:33–17:34</text><text x="907.1666666666666" y="2153" text-anchor="middle" class="time stop">22:24–22:25</text><line x1="72" y1="2168" x2="1368" y2="2168" class="grid"/><text x="90" y="2196" class="station">의성</text><text x="354.1666666666667" y="2195" text-anchor="middle" class="time stop">8:04–8:06</text><text x="538.5" y="2195" text-anchor="middle" class="time stop">12:58–13:00</text><text x="722.8333333333334" y="2195" text-anchor="middle" class="time stop">17:45–17:47</text><text x="907.1666666666666" y="2195" text-anchor="middle" class="time stop">22:36–22:38</text><rect x="72" y="2210" width="1296" height="42" fill="#faf9f6"/><line x1="72" y1="2210" x2="1368" y2="2210" class="grid"/><text x="90" y="2238" class="station">금성</text><text x="354.1666666666667" y="2237" text-anchor="middle" class="time pass">8:11 통과</text><text x="538.5" y="2237" text-anchor="middle" class="time pass">13:05 통과</text><text x="722.8333333333334" y="2237" text-anchor="middle" class="time pass">17:52 통과</text><text x="907.1666666666666" y="2237" text-anchor="middle" class="time pass">22:43 통과</text><line x1="72" y1="2252" x2="1368" y2="2252" class="grid"/><text x="90" y="2280" class="station">이화</text><text x="354.1666666666667" y="2279" text-anchor="middle" class="time stop">8:15–8:16</text><text x="538.5" y="2279" text-anchor="middle" class="time stop">13:09–13:10</text><text x="722.8333333333334" y="2279" text-anchor="middle" class="time stop">17:56–17:57</text><text x="907.1666666666666" y="2279" text-anchor="middle" class="time stop">22:47–22:48</text><rect x="72" y="2294" width="1296" height="42" fill="#faf9f6"/><line x1="72" y1="2294" x2="1368" y2="2294" class="grid"/><text x="90" y="2322" class="station">화본</text><text x="354.1666666666667" y="2321" text-anchor="middle" class="time pass">8:21 통과</text><text x="538.5" y="2321" text-anchor="middle" class="time pass">13:15 통과</text><text x="722.8333333333334" y="2321" text-anchor="middle" class="time pass">18:02 통과</text><text x="907.1666666666666" y="2321" text-anchor="middle" class="time pass">22:53 통과</text><line x1="72" y1="2336" x2="1368" y2="2336" class="grid"/><text x="90" y="2364" class="station">신녕</text><text x="354.1666666666667" y="2363" text-anchor="middle" class="time pass">8:26 통과</text><text x="538.5" y="2363" text-anchor="middle" class="time pass">13:20 통과</text><text x="722.8333333333334" y="2363" text-anchor="middle" class="time pass">18:07 통과</text><text x="907.1666666666666" y="2363" text-anchor="middle" class="time pass">22:58 통과</text><rect x="72" y="2378" width="1296" height="42" fill="#faf9f6"/><line x1="72" y1="2378" x2="1368" y2="2378" class="grid"/><text x="90" y="2406" class="station">하양</text><text x="354.1666666666667" y="2405" text-anchor="middle" class="time stop">8:34–8:35</text><text x="538.5" y="2405" text-anchor="middle" class="time stop">13:28–13:29</text><text x="722.8333333333334" y="2405" text-anchor="middle" class="time stop">18:15–18:16</text><text x="907.1666666666666" y="2405" text-anchor="middle" class="time stop">23:06–23:07</text><line x1="72" y1="2420" x2="1368" y2="2420" class="grid"/><text x="90" y="2448" class="station">경산</text><text x="354.1666666666667" y="2447" text-anchor="middle" class="time stop">8:42–8:44</text><text x="538.5" y="2447" text-anchor="middle" class="time stop">13:36–13:38</text><text x="722.8333333333334" y="2447" text-anchor="middle" class="time stop">18:23–18:25</text><text x="907.1666666666666" y="2447" text-anchor="middle" class="time stop">23:14–23:16</text><rect x="72" y="2462" width="1296" height="42" fill="#faf9f6"/><line x1="72" y1="2462" x2="1368" y2="2462" class="grid"/><text x="90" y="2490" class="station">남대구(도착)</text><text x="354.1666666666667" y="2489" text-anchor="middle" class="time terminal">8:53 도착</text><text x="538.5" y="2489" text-anchor="middle" class="time terminal">13:47 도착</text><text x="722.8333333333334" y="2489" text-anchor="middle" class="time terminal">18:34 도착</text><text x="907.1666666666666" y="2489" text-anchor="middle" class="time terminal">23:25 도착</text><rect x="72" y="2588" width="8" height="34" rx="4" fill="#e05a33"/><text x="94" y="2614" class="group">충주 ↔ 남대구 ITX-마음</text><text x="1368" y="2613" text-anchor="end" class="groupCount">4편 · ITX-마음</text><text x="72" y="2662" class="direction">하행 · 충주 → 남대구</text><rect x="72" y="2676" width="1296" height="646" fill="#fff" stroke="#5f6368" stroke-width="1.5"/><rect x="72" y="2676" width="1296" height="58" fill="#ecebe7"/><text x="167" y="2712" text-anchor="middle" class="th">역명</text><rect x="262" y="2676" width="184.33333333333334" height="58" fill="#e05a33" opacity=".10"/><text x="354.1666666666667" y="2701" text-anchor="middle" class="trainNo">#1885</text><text x="354.1666666666667" y="2721" text-anchor="middle" class="dest">남대구행</text><rect x="446.33333333333337" y="2676" width="184.33333333333334" height="58" fill="#e05a33" opacity=".10"/><text x="538.5" y="2701" text-anchor="middle" class="trainNo">#1887</text><text x="538.5" y="2721" text-anchor="middle" class="dest">남대구행</text><line x1="262" y1="2676" x2="262" y2="3322" class="grid"/><line x1="446.33333333333337" y1="2676" x2="446.33333333333337" y2="3322" class="grid"/><line x1="630.6666666666667" y1="2676" x2="630.6666666666667" y2="3322" class="grid"/><line x1="72" y1="2734" x2="1368" y2="2734" class="grid"/><text x="90" y="2762" class="station">충주</text><text x="354.1666666666667" y="2761" text-anchor="middle" class="time terminal">4:39 출발</text><text x="538.5" y="2761" text-anchor="middle" class="time terminal">4:52 출발</text><rect x="72" y="2776" width="1296" height="42" fill="#faf9f6"/><line x1="72" y1="2776" x2="1368" y2="2776" class="grid"/><text x="90" y="2804" class="station">수안보</text><text x="354.1666666666667" y="2803" text-anchor="middle" class="time pass">4:47 통과</text><text x="538.5" y="2803" text-anchor="middle" class="time pass">5:00 통과</text><line x1="72" y1="2818" x2="1368" y2="2818" class="grid"/><text x="90" y="2846" class="station">북문경</text><text x="354.1666666666667" y="2845" text-anchor="middle" class="time stop">4:54–4:55</text><text x="538.5" y="2845" text-anchor="middle" class="time stop">5:07–5:08</text><rect x="72" y="2860" width="1296" height="42" fill="#faf9f6"/><line x1="72" y1="2860" x2="1368" y2="2860" class="grid"/><text x="90" y="2888" class="station">문경</text><text x="354.1666666666667" y="2887" text-anchor="middle" class="time stop">5:03–5:04</text><text x="538.5" y="2887" text-anchor="middle" class="time stop">5:16–5:17</text><line x1="72" y1="2902" x2="1368" y2="2902" class="grid"/><text x="90" y="2930" class="station">상주</text><text x="354.1666666666667" y="2929" text-anchor="middle" class="time stop">5:13–5:14</text><text x="538.5" y="2929" text-anchor="middle" class="time stop">5:26–5:27</text><rect x="72" y="2944" width="1296" height="42" fill="#faf9f6"/><line x1="72" y1="2944" x2="1368" y2="2944" class="grid"/><text x="90" y="2972" class="station">청리</text><text x="354.1666666666667" y="2971" text-anchor="middle" class="time pass">5:19 통과</text><text x="538.5" y="2971" text-anchor="middle" class="time pass">5:32 통과</text><line x1="72" y1="2986" x2="1368" y2="2986" class="grid"/><text x="90" y="3014" class="station">옥산</text><text x="354.1666666666667" y="3013" text-anchor="middle" class="time pass">5:21 통과</text><text x="538.5" y="3013" text-anchor="middle" class="time pass">5:34 통과</text><rect x="72" y="3028" width="1296" height="42" fill="#faf9f6"/><line x1="72" y1="3028" x2="1368" y2="3028" class="grid"/><text x="90" y="3056" class="station">김천</text><text x="354.1666666666667" y="3055" text-anchor="middle" class="time stop">5:30–5:31</text><text x="538.5" y="3055" text-anchor="middle" class="time stop">5:43–5:44</text><line x1="72" y1="3070" x2="1368" y2="3070" class="grid"/><text x="90" y="3098" class="station">구미</text><text x="354.1666666666667" y="3097" text-anchor="middle" class="time stop">5:40–5:41</text><text x="538.5" y="3097" text-anchor="middle" class="time stop">5:53–5:54</text><rect x="72" y="3112" width="1296" height="42" fill="#faf9f6"/><line x1="72" y1="3112" x2="1368" y2="3112" class="grid"/><text x="90" y="3140" class="station">약목</text><text x="354.1666666666667" y="3139" text-anchor="middle" class="time pass">5:46 통과</text><text x="538.5" y="3139" text-anchor="middle" class="time pass">5:59 통과</text><line x1="72" y1="3154" x2="1368" y2="3154" class="grid"/><text x="90" y="3182" class="station">서왜관</text><text x="354.1666666666667" y="3181" text-anchor="middle" class="time pass">5:49 통과</text><text x="538.5" y="3181" text-anchor="middle" class="time pass">6:02 통과</text><rect x="72" y="3196" width="1296" height="42" fill="#faf9f6"/><line x1="72" y1="3196" x2="1368" y2="3196" class="grid"/><text x="90" y="3224" class="station">하빈</text><text x="354.1666666666667" y="3223" text-anchor="middle" class="time pass">5:53 통과</text><text x="538.5" y="3223" text-anchor="middle" class="time pass">6:06 통과</text><line x1="72" y1="3238" x2="1368" y2="3238" class="grid"/><text x="90" y="3266" class="station">호림</text><text x="354.1666666666667" y="3265" text-anchor="middle" class="time stop">5:57–5:58</text><text x="538.5" y="3265" text-anchor="middle" class="time stop">6:10–6:11</text><rect x="72" y="3280" width="1296" height="42" fill="#faf9f6"/><line x1="72" y1="3280" x2="1368" y2="3280" class="grid"/><text x="90" y="3308" class="station">남대구</text><text x="354.1666666666667" y="3307" text-anchor="middle" class="time terminal">6:02 도착</text><text x="538.5" y="3307" text-anchor="middle" class="time terminal">6:15 도착</text><text x="72" y="3372" class="direction">상행 · 남대구 → 충주</text><rect x="72" y="3386" width="1296" height="646" fill="#fff" stroke="#5f6368" stroke-width="1.5"/><rect x="72" y="3386" width="1296" height="58" fill="#ecebe7"/><text x="167" y="3422" text-anchor="middle" class="th">역명</text><rect x="262" y="3386" width="184.33333333333334" height="58" fill="#e05a33" opacity=".10"/><text x="354.1666666666667" y="3411" text-anchor="middle" class="trainNo">#1886</text><text x="354.1666666666667" y="3431" text-anchor="middle" class="dest">충주행</text><rect x="446.33333333333337" y="3386" width="184.33333333333334" height="58" fill="#e05a33" opacity=".10"/><text x="538.5" y="3411" text-anchor="middle" class="trainNo">#1888</text><text x="538.5" y="3431" text-anchor="middle" class="dest">충주행</text><line x1="262" y1="3386" x2="262" y2="4032" class="grid"/><line x1="446.33333333333337" y1="3386" x2="446.33333333333337" y2="4032" class="grid"/><line x1="630.6666666666667" y1="3386" x2="630.6666666666667" y2="4032" class="grid"/><line x1="72" y1="3444" x2="1368" y2="3444" class="grid"/><text x="90" y="3472" class="station">남대구</text><text x="354.1666666666667" y="3471" text-anchor="middle" class="time terminal">23:20 출발</text><text x="538.5" y="3471" text-anchor="middle" class="time terminal">23:45 출발</text><rect x="72" y="3486" width="1296" height="42" fill="#faf9f6"/><line x1="72" y1="3486" x2="1368" y2="3486" class="grid"/><text x="90" y="3514" class="station">호림</text><text x="354.1666666666667" y="3513" text-anchor="middle" class="time stop">23:23–23:24</text><text x="538.5" y="3513" text-anchor="middle" class="time stop">23:48–23:49</text><line x1="72" y1="3528" x2="1368" y2="3528" class="grid"/><text x="90" y="3556" class="station">하빈</text><text x="354.1666666666667" y="3555" text-anchor="middle" class="time pass">23:28 통과</text><text x="538.5" y="3555" text-anchor="middle" class="time pass">23:53 통과</text><rect x="72" y="3570" width="1296" height="42" fill="#faf9f6"/><line x1="72" y1="3570" x2="1368" y2="3570" class="grid"/><text x="90" y="3598" class="station">서왜관</text><text x="354.1666666666667" y="3597" text-anchor="middle" class="time pass">23:33 통과</text><text x="538.5" y="3597" text-anchor="middle" class="time pass">23:58 통과</text><line x1="72" y1="3612" x2="1368" y2="3612" class="grid"/><text x="90" y="3640" class="station">약목</text><text x="354.1666666666667" y="3639" text-anchor="middle" class="time pass">23:35 통과</text><text x="538.5" y="3639" text-anchor="middle" class="time pass">0:00 통과</text><rect x="72" y="3654" width="1296" height="42" fill="#faf9f6"/><line x1="72" y1="3654" x2="1368" y2="3654" class="grid"/><text x="90" y="3682" class="station">구미</text><text x="354.1666666666667" y="3681" text-anchor="middle" class="time stop">23:40–23:41</text><text x="538.5" y="3681" text-anchor="middle" class="time stop">0:05–0:06</text><line x1="72" y1="3696" x2="1368" y2="3696" class="grid"/><text x="90" y="3724" class="station">김천</text><text x="354.1666666666667" y="3723" text-anchor="middle" class="time stop">23:50–23:52</text><text x="538.5" y="3723" text-anchor="middle" class="time stop">0:15–0:17</text><rect x="72" y="3738" width="1296" height="42" fill="#faf9f6"/><line x1="72" y1="3738" x2="1368" y2="3738" class="grid"/><text x="90" y="3766" class="station">옥산</text><text x="354.1666666666667" y="3765" text-anchor="middle" class="time pass">0:00 통과</text><text x="538.5" y="3765" text-anchor="middle" class="time pass">0:25 통과</text><line x1="72" y1="3780" x2="1368" y2="3780" class="grid"/><text x="90" y="3808" class="station">청리</text><text x="354.1666666666667" y="3807" text-anchor="middle" class="time pass">0:03 통과</text><text x="538.5" y="3807" text-anchor="middle" class="time pass">0:28 통과</text><rect x="72" y="3822" width="1296" height="42" fill="#faf9f6"/><line x1="72" y1="3822" x2="1368" y2="3822" class="grid"/><text x="90" y="3850" class="station">상주</text><text x="354.1666666666667" y="3849" text-anchor="middle" class="time stop">0:07–0:08</text><text x="538.5" y="3849" text-anchor="middle" class="time stop">0:32–0:33</text><line x1="72" y1="3864" x2="1368" y2="3864" class="grid"/><text x="90" y="3892" class="station">문경</text><text x="354.1666666666667" y="3891" text-anchor="middle" class="time stop">0:17–0:18</text><text x="538.5" y="3891" text-anchor="middle" class="time stop">0:42–0:43</text><rect x="72" y="3906" width="1296" height="42" fill="#faf9f6"/><line x1="72" y1="3906" x2="1368" y2="3906" class="grid"/><text x="90" y="3934" class="station">북문경</text><text x="354.1666666666667" y="3933" text-anchor="middle" class="time stop">0:26–0:27</text><text x="538.5" y="3933" text-anchor="middle" class="time stop">0:51–0:52</text><line x1="72" y1="3948" x2="1368" y2="3948" class="grid"/><text x="90" y="3976" class="station">수안보</text><text x="354.1666666666667" y="3975" text-anchor="middle" class="time pass">0:34 통과</text><text x="538.5" y="3975" text-anchor="middle" class="time pass">0:59 통과</text><rect x="72" y="3990" width="1296" height="42" fill="#faf9f6"/><line x1="72" y1="3990" x2="1368" y2="3990" class="grid"/><text x="90" y="4018" class="station">충주</text><text x="354.1666666666667" y="4017" text-anchor="middle" class="time terminal">0:42 도착</text><text x="538.5" y="4017" text-anchor="middle" class="time terminal">1:07 도착</text><line x1="72" y1="4151" x2="1368" y2="4151" stroke="#aaa59b"/><text x="72" y="4185" class="foot">※ 출발역은 ‘출발’, 종착역은 ‘도착’으로 표시합니다. 회색 글자는 통과역입니다.</text><text x="1368" y="4185" text-anchor="end" class="foot">자료: NIMBYRAILTABLE ALL_TRAINS · 자동 생성</text></svg>