<?xml version="1.0" encoding="UTF-8"?>
<svg xmlns="http://www.w3.org/2000/svg" width="1440" height="1350" viewBox="0 0 1440 1350"><style>
    .brand{font:700 14px Arial,sans-serif;letter-spacing:2px;fill:#2456a6}
    .title{font:800 31px 'Apple SD Gothic Neo','Noto Sans CJK KR',sans-serif;fill:#151515}
    .subtitle{font:500 18px 'Apple SD Gothic Neo','Noto Sans CJK KR',sans-serif;fill:#53565a}
    .date{font:600 15px 'Apple SD Gothic Neo','Noto Sans CJK KR',sans-serif;fill:#555}
    .section{font:800 22px 'Apple SD Gothic Neo','Noto Sans CJK KR',sans-serif;fill:#171717}
    .th{font:800 16px 'Apple SD Gothic Neo','Noto Sans CJK KR',sans-serif;fill:#202124}
    .td{font:600 15px 'Apple SD Gothic Neo','Noto Sans CJK KR',sans-serif;fill:#202124}
    .callout{font:650 15px 'Apple SD Gothic Neo','Noto Sans CJK KR',sans-serif;fill:#24344d}
    .foot{font:500 13px 'Apple SD Gothic Neo','Noto Sans CJK KR',sans-serif;fill:#666}
    .grid{stroke:#b8b6b0;stroke-width:1}
  </style><rect width="1440" height="1350" fill="#f4f1e9"/><rect x="38" y="38" width="1364" height="1274" rx="8" fill="#fff" stroke="#d3cec2" stroke-width="2"/><text x="78" y="90" class="brand">NIMBYRAIL PASSENGER INFORMATION</text><text x="78" y="142" class="title">[붙임] 개활선 추월 해소 운행조정 대상열차</text><text x="78" y="181" class="subtitle">대피역 정차·발차 순서·동시 출발 조정</text><text x="1362" y="142" text-anchor="end" class="date">2026-07-03 기준</text><rect x="78" y="220" width="8" height="32" rx="4" fill="#2456a6"/><text x="100" y="245" class="section">조정된 열차 (대피역에서 대피 · 종착 도착 3~4분 지연)</text><rect x="78" y="268" width="1284" height="332" fill="#fff" stroke="#555" stroke-width="1.5"/><rect x="78" y="268" width="1284" height="56" fill="#ecebe7"/><text x="206.4" y="301" text-anchor="middle" class="th"><tspan x="206.4" dy="0">열차</tspan></text><text x="463.20000000000005" y="301" text-anchor="middle" class="th"><tspan x="463.20000000000005" dy="0">대피역</tspan></text><line x1="334.8" y1="268" x2="334.8" y2="324" class="grid"/><text x="720" y="301" text-anchor="middle" class="th"><tspan x="720" dy="0">구간</tspan></text><line x1="591.6" y1="268" x2="591.6" y2="324" class="grid"/><text x="976.8000000000001" y="301" text-anchor="middle" class="th"><tspan x="976.8000000000001" dy="0">추월 열차</tspan></text><line x1="848.4000000000001" y1="268" x2="848.4000000000001" y2="324" class="grid"/><text x="1233.6000000000001" y="301" text-anchor="middle" class="th"><tspan x="1233.6000000000001" dy="0">조정</tspan></text><line x1="1105.2" y1="268" x2="1105.2" y2="324" class="grid"/><line x1="78" y1="324" x2="1362" y2="324" class="grid"/><text x="206.4" y="352" text-anchor="middle" class="td"><tspan x="206.4" dy="0">무궁화 1530</tspan></text><text x="463.20000000000005" y="352" text-anchor="middle" class="td"><tspan x="463.20000000000005" dy="0">운암</tspan></text><line x1="334.8" y1="324" x2="334.8" y2="370" class="grid"/><text x="720" y="352" text-anchor="middle" class="td"><tspan x="720" dy="0">운암~전주</tspan></text><line x1="591.6" y1="324" x2="591.6" y2="370" class="grid"/><text x="976.8000000000001" y="352" text-anchor="middle" class="td"><tspan x="976.8000000000001" dy="0">KTX-산천 564</tspan></text><line x1="848.4000000000001" y1="324" x2="848.4000000000001" y2="370" class="grid"/><text x="1233.6000000000001" y="352" text-anchor="middle" class="td"><tspan x="1233.6000000000001" dy="0">+4분</tspan></text><line x1="1105.2" y1="324" x2="1105.2" y2="370" class="grid"/><line x1="78" y1="370" x2="1362" y2="370" class="grid"/><rect x="78" y="370" width="1284" height="46" fill="#faf9f6"/><text x="206.4" y="398" text-anchor="middle" class="td"><tspan x="206.4" dy="0">무궁화 1544</tspan></text><text x="463.20000000000005" y="398" text-anchor="middle" class="td"><tspan x="463.20000000000005" dy="0">운암</tspan></text><line x1="334.8" y1="370" x2="334.8" y2="416" class="grid"/><text x="720" y="398" text-anchor="middle" class="td"><tspan x="720" dy="0">운암~전주</tspan></text><line x1="591.6" y1="370" x2="591.6" y2="416" class="grid"/><text x="976.8000000000001" y="398" text-anchor="middle" class="td"><tspan x="976.8000000000001" dy="0">KTX-산천 582</tspan></text><line x1="848.4000000000001" y1="370" x2="848.4000000000001" y2="416" class="grid"/><text x="1233.6000000000001" y="398" text-anchor="middle" class="td"><tspan x="1233.6000000000001" dy="0">+4분</tspan></text><line x1="1105.2" y1="370" x2="1105.2" y2="416" class="grid"/><line x1="78" y1="416" x2="1362" y2="416" class="grid"/><text x="206.4" y="444" text-anchor="middle" class="td"><tspan x="206.4" dy="0">무궁화 1558</tspan></text><text x="463.20000000000005" y="444" text-anchor="middle" class="td"><tspan x="463.20000000000005" dy="0">남안양</tspan></text><line x1="334.8" y1="416" x2="334.8" y2="462" class="grid"/><text x="720" y="444" text-anchor="middle" class="td"><tspan x="720" dy="0">남안양~서울</tspan></text><line x1="591.6" y1="416" x2="591.6" y2="462" class="grid"/><text x="976.8000000000001" y="444" text-anchor="middle" class="td"><tspan x="976.8000000000001" dy="0">ITX-새마을 1156</tspan></text><line x1="848.4000000000001" y1="416" x2="848.4000000000001" y2="462" class="grid"/><text x="1233.6000000000001" y="444" text-anchor="middle" class="td"><tspan x="1233.6000000000001" dy="0">+4분</tspan></text><line x1="1105.2" y1="416" x2="1105.2" y2="462" class="grid"/><line x1="78" y1="462" x2="1362" y2="462" class="grid"/><rect x="78" y="462" width="1284" height="46" fill="#faf9f6"/><text x="206.4" y="490" text-anchor="middle" class="td"><tspan x="206.4" dy="0">무궁화 1562</tspan></text><text x="463.20000000000005" y="490" text-anchor="middle" class="td"><tspan x="463.20000000000005" dy="0">남안양</tspan></text><line x1="334.8" y1="462" x2="334.8" y2="508" class="grid"/><text x="720" y="490" text-anchor="middle" class="td"><tspan x="720" dy="0">남안양~서울</tspan></text><line x1="591.6" y1="462" x2="591.6" y2="508" class="grid"/><text x="976.8000000000001" y="490" text-anchor="middle" class="td"><tspan x="976.8000000000001" dy="0">ITX-새마을 1160</tspan></text><line x1="848.4000000000001" y1="462" x2="848.4000000000001" y2="508" class="grid"/><text x="1233.6000000000001" y="490" text-anchor="middle" class="td"><tspan x="1233.6000000000001" dy="0">+4분</tspan></text><line x1="1105.2" y1="462" x2="1105.2" y2="508" class="grid"/><line x1="78" y1="508" x2="1362" y2="508" class="grid"/><text x="206.4" y="536" text-anchor="middle" class="td"><tspan x="206.4" dy="0">무궁화 1923</tspan></text><text x="463.20000000000005" y="536" text-anchor="middle" class="td"><tspan x="463.20000000000005" dy="0">강진</tspan></text><line x1="334.8" y1="508" x2="334.8" y2="554" class="grid"/><text x="720" y="536" text-anchor="middle" class="td"><tspan x="720" dy="0">강진~완도</tspan></text><line x1="591.6" y1="508" x2="591.6" y2="554" class="grid"/><text x="976.8000000000001" y="536" text-anchor="middle" class="td"><tspan x="976.8000000000001" dy="0">KTX 903</tspan></text><line x1="848.4000000000001" y1="508" x2="848.4000000000001" y2="554" class="grid"/><text x="1233.6000000000001" y="536" text-anchor="middle" class="td"><tspan x="1233.6000000000001" dy="0">+3분</tspan></text><line x1="1105.2" y1="508" x2="1105.2" y2="554" class="grid"/><line x1="78" y1="554" x2="1362" y2="554" class="grid"/><rect x="78" y="554" width="1284" height="46" fill="#faf9f6"/><text x="206.4" y="582" text-anchor="middle" class="td"><tspan x="206.4" dy="0">무궁화 1931</tspan></text><text x="463.20000000000005" y="582" text-anchor="middle" class="td"><tspan x="463.20000000000005" dy="0">강진</tspan></text><line x1="334.8" y1="554" x2="334.8" y2="600" class="grid"/><text x="720" y="582" text-anchor="middle" class="td"><tspan x="720" dy="0">강진~완도</tspan></text><line x1="591.6" y1="554" x2="591.6" y2="600" class="grid"/><text x="976.8000000000001" y="582" text-anchor="middle" class="td"><tspan x="976.8000000000001" dy="0">KTX 915</tspan></text><line x1="848.4000000000001" y1="554" x2="848.4000000000001" y2="600" class="grid"/><text x="1233.6000000000001" y="582" text-anchor="middle" class="td"><tspan x="1233.6000000000001" dy="0">+3분</tspan></text><line x1="1105.2" y1="554" x2="1105.2" y2="600" class="grid"/><rect x="78" y="654" width="8" height="32" rx="4" fill="#2456a6"/><text x="100" y="679" class="section">7/9 추가 조정 — 개활선 추월·동시 출발 해소</text><rect x="78" y="702" width="1284" height="404" fill="#fff" stroke="#555" stroke-width="1.5"/><rect x="78" y="702" width="1284" height="56" fill="#ecebe7"/><text x="292" y="735" text-anchor="middle" class="th"><tspan x="292" dy="0">열차</tspan></text><text x="720" y="735" text-anchor="middle" class="th"><tspan x="720" dy="0">내용</tspan></text><line x1="506" y1="702" x2="506" y2="758" class="grid"/><text x="1148" y="735" text-anchor="middle" class="th"><tspan x="1148" dy="0">조정</tspan></text><line x1="934" y1="702" x2="934" y2="758" class="grid"/><line x1="78" y1="758" x2="1362" y2="758" class="grid"/><text x="292" y="795" text-anchor="middle" class="td"><tspan x="292" dy="0">ITX-새마을 1276</tspan></text><text x="720" y="785" text-anchor="middle" class="td"><tspan x="720" dy="0">순천 대피 — KTX 911이 역에서 추월 (순천~보성</tspan><tspan x="720" dy="20">개활선 추월 해소)</tspan></text><line x1="506" y1="758" x2="506" y2="822" class="grid"/><text x="1148" y="795" text-anchor="middle" class="td"><tspan x="1148" dy="0">순천 발 14:20→14:28 · 목포 착 +9분</tspan></text><line x1="934" y1="758" x2="934" y2="822" class="grid"/><line x1="78" y1="822" x2="1362" y2="822" class="grid"/><rect x="78" y="822" width="1284" height="64" fill="#faf9f6"/><text x="292" y="859" text-anchor="middle" class="td"><tspan x="292" dy="0">무궁화 1539</tspan></text><text x="720" y="849" text-anchor="middle" class="td"><tspan x="720" dy="0">전주 발차 순서 조정(KTX-산천 573 먼저) +</tspan><tspan x="720" dy="20">북순천 대피(ITX 1163 추월)</tspan></text><line x1="506" y1="822" x2="506" y2="886" class="grid"/><text x="1148" y="859" text-anchor="middle" class="td"><tspan x="1148" dy="0">전주 발 18:50→18:55 · 여수 착 20:32</tspan></text><line x1="934" y1="822" x2="934" y2="886" class="grid"/><line x1="78" y1="886" x2="1362" y2="886" class="grid"/><text x="292" y="923" text-anchor="middle" class="td"><tspan x="292" dy="0">KTX 104</tspan></text><text x="720" y="913" text-anchor="middle" class="td"><tspan x="720" dy="0">SRT 372와 영동~세종 개활선 교차 해소 — 372</tspan><tspan x="720" dy="20">후행으로 재배열</tspan></text><line x1="506" y1="886" x2="506" y2="950" class="grid"/><text x="1148" y="923" text-anchor="middle" class="td"><tspan x="1148" dy="0">대전 이북 시각 조정 · 서울 착 1:04</tspan></text><line x1="934" y1="886" x2="934" y2="950" class="grid"/><line x1="78" y1="950" x2="1362" y2="950" class="grid"/><rect x="78" y="950" width="1284" height="46" fill="#faf9f6"/><text x="292" y="978" text-anchor="middle" class="td"><tspan x="292" dy="0">SRT 312</tspan></text><text x="720" y="978" text-anchor="middle" class="td"><tspan x="720" dy="0">KTX 18과 부산 동시 출발 해소</tspan></text><line x1="506" y1="950" x2="506" y2="996" class="grid"/><text x="1148" y="978" text-anchor="middle" class="td"><tspan x="1148" dy="0">부산 발 7:40→7:43</tspan></text><line x1="934" y1="950" x2="934" y2="996" class="grid"/><line x1="78" y1="996" x2="1362" y2="996" class="grid"/><text x="292" y="1024" text-anchor="middle" class="td"><tspan x="292" dy="0">ITX-새마을 1891</tspan></text><text x="720" y="1024" text-anchor="middle" class="td"><tspan x="720" dy="0">ITX-새마을 1153과 서울 동시 출발 해소</tspan></text><line x1="506" y1="996" x2="506" y2="1042" class="grid"/><text x="1148" y="1024" text-anchor="middle" class="td"><tspan x="1148" dy="0">서울 발 7:00→7:10</tspan></text><line x1="934" y1="996" x2="934" y2="1042" class="grid"/><line x1="78" y1="1042" x2="1362" y2="1042" class="grid"/><rect x="78" y="1042" width="1284" height="64" fill="#faf9f6"/><text x="292" y="1079" text-anchor="middle" class="td"><tspan x="292" dy="0">ITX-새마을 1097</tspan></text><text x="720" y="1069" text-anchor="middle" class="td"><tspan x="720" dy="0">ITX-새마을 1085와 청량리 동시 출발 해소 · 단양</tspan><tspan x="720" dy="20">이후 무궁화 1663 후행</tspan></text><line x1="506" y1="1042" x2="506" y2="1106" class="grid"/><text x="1148" y="1079" text-anchor="middle" class="td"><tspan x="1148" dy="0">청량리 발 18:52→18:55 · 남대구 착 21:40</tspan></text><line x1="934" y1="1042" x2="934" y2="1106" class="grid"/><rect x="78" y="1160" width="1284" height="68" rx="9" fill="#eef3fb" stroke="#b6c7e2"/><circle cx="103" cy="1188" r="5" fill="#2456a6"/><text x="120" y="1194" class="callout">추월은 정차역에서만 이뤄지도록 조정 · 표에 없는 구간 시각은 종전과 동일</text><text x="78" y="1268" class="foot">※ 실제 운행 시각은 앱의 열차 상세 시간표에서 다시 확인해 주세요.</text></svg>