<?xml version="1.0" encoding="UTF-8"?>
<svg xmlns="http://www.w3.org/2000/svg" width="1440" height="844" viewBox="0 0 1440 844"><style>
    .brand{font:700 14px Arial,sans-serif;letter-spacing:2px;fill:#2456a6}
    .title{font:800 31px 'Apple SD Gothic Neo','Noto Sans CJK KR',sans-serif;fill:#151515}
    .subtitle{font:500 18px 'Apple SD Gothic Neo','Noto Sans CJK KR',sans-serif;fill:#53565a}
    .date{font:600 15px 'Apple SD Gothic Neo','Noto Sans CJK KR',sans-serif;fill:#555}
    .section{font:800 22px 'Apple SD Gothic Neo','Noto Sans CJK KR',sans-serif;fill:#171717}
    .th{font:800 16px 'Apple SD Gothic Neo','Noto Sans CJK KR',sans-serif;fill:#202124}
    .td{font:600 15px 'Apple SD Gothic Neo','Noto Sans CJK KR',sans-serif;fill:#202124}
    .callout{font:650 15px 'Apple SD Gothic Neo','Noto Sans CJK KR',sans-serif;fill:#24344d}
    .foot{font:500 13px 'Apple SD Gothic Neo','Noto Sans CJK KR',sans-serif;fill:#666}
    .grid{stroke:#b8b6b0;stroke-width:1}
  </style><rect width="1440" height="844" fill="#f4f1e9"/><rect x="38" y="38" width="1364" height="768" rx="8" fill="#fff" stroke="#d3cec2" stroke-width="2"/><text x="78" y="90" class="brand">NIMBYRAIL PASSENGER INFORMATION</text><text x="78" y="142" class="title">[붙임] 한강로–순천 무궁화호 운행계획</text><text x="78" y="181" class="subtitle">경부선·호남선·경전선 경유 · 하루 3왕복</text><text x="1362" y="142" text-anchor="end" class="date">2026-07-03 기준</text><rect x="78" y="220" width="8" height="32" rx="4" fill="#2456a6"/><text x="100" y="245" class="section">운행 시각</text><rect x="78" y="268" width="1284" height="332" fill="#fff" stroke="#555" stroke-width="1.5"/><rect x="78" y="268" width="1284" height="56" fill="#ecebe7"/><text x="238.5" y="301" text-anchor="middle" class="th"><tspan x="238.5" dy="0">열차</tspan></text><text x="559.5" y="301" text-anchor="middle" class="th"><tspan x="559.5" dy="0">방면</tspan></text><line x1="399" y1="268" x2="399" y2="324" class="grid"/><text x="880.5" y="301" text-anchor="middle" class="th"><tspan x="880.5" dy="0">출발</tspan></text><line x1="720" y1="268" x2="720" y2="324" class="grid"/><text x="1201.5" y="301" text-anchor="middle" class="th"><tspan x="1201.5" dy="0">도착</tspan></text><line x1="1041" y1="268" x2="1041" y2="324" class="grid"/><line x1="78" y1="324" x2="1362" y2="324" class="grid"/><text x="238.5" y="352" text-anchor="middle" class="td"><tspan x="238.5" dy="0">무궁화 1491</tspan></text><text x="559.5" y="352" text-anchor="middle" class="td"><tspan x="559.5" dy="0">순천행</tspan></text><line x1="399" y1="324" x2="399" y2="370" class="grid"/><text x="880.5" y="352" text-anchor="middle" class="td"><tspan x="880.5" dy="0">한강로 06:02</tspan></text><line x1="720" y1="324" x2="720" y2="370" class="grid"/><text x="1201.5" y="352" text-anchor="middle" class="td"><tspan x="1201.5" dy="0">순천 11:15</tspan></text><line x1="1041" y1="324" x2="1041" y2="370" class="grid"/><line x1="78" y1="370" x2="1362" y2="370" class="grid"/><rect x="78" y="370" width="1284" height="46" fill="#faf9f6"/><text x="238.5" y="398" text-anchor="middle" class="td"><tspan x="238.5" dy="0">무궁화 1492</tspan></text><text x="559.5" y="398" text-anchor="middle" class="td"><tspan x="559.5" dy="0">한강로행</tspan></text><line x1="399" y1="370" x2="399" y2="416" class="grid"/><text x="880.5" y="398" text-anchor="middle" class="td"><tspan x="880.5" dy="0">순천 05:56</tspan></text><line x1="720" y1="370" x2="720" y2="416" class="grid"/><text x="1201.5" y="398" text-anchor="middle" class="td"><tspan x="1201.5" dy="0">한강로 11:08</tspan></text><line x1="1041" y1="370" x2="1041" y2="416" class="grid"/><line x1="78" y1="416" x2="1362" y2="416" class="grid"/><text x="238.5" y="444" text-anchor="middle" class="td"><tspan x="238.5" dy="0">무궁화 1493</tspan></text><text x="559.5" y="444" text-anchor="middle" class="td"><tspan x="559.5" dy="0">순천행</tspan></text><line x1="399" y1="416" x2="399" y2="462" class="grid"/><text x="880.5" y="444" text-anchor="middle" class="td"><tspan x="880.5" dy="0">한강로 13:18</tspan></text><line x1="720" y1="416" x2="720" y2="462" class="grid"/><text x="1201.5" y="444" text-anchor="middle" class="td"><tspan x="1201.5" dy="0">순천 18:31</tspan></text><line x1="1041" y1="416" x2="1041" y2="462" class="grid"/><line x1="78" y1="462" x2="1362" y2="462" class="grid"/><rect x="78" y="462" width="1284" height="46" fill="#faf9f6"/><text x="238.5" y="490" text-anchor="middle" class="td"><tspan x="238.5" dy="0">무궁화 1494</tspan></text><text x="559.5" y="490" text-anchor="middle" class="td"><tspan x="559.5" dy="0">한강로행</tspan></text><line x1="399" y1="462" x2="399" y2="508" class="grid"/><text x="880.5" y="490" text-anchor="middle" class="td"><tspan x="880.5" dy="0">순천 11:33</tspan></text><line x1="720" y1="462" x2="720" y2="508" class="grid"/><text x="1201.5" y="490" text-anchor="middle" class="td"><tspan x="1201.5" dy="0">한강로 16:45</tspan></text><line x1="1041" y1="462" x2="1041" y2="508" class="grid"/><line x1="78" y1="508" x2="1362" y2="508" class="grid"/><text x="238.5" y="536" text-anchor="middle" class="td"><tspan x="238.5" dy="0">무궁화 1495</tspan></text><text x="559.5" y="536" text-anchor="middle" class="td"><tspan x="559.5" dy="0">순천행</tspan></text><line x1="399" y1="508" x2="399" y2="554" class="grid"/><text x="880.5" y="536" text-anchor="middle" class="td"><tspan x="880.5" dy="0">한강로 17:51</tspan></text><line x1="720" y1="508" x2="720" y2="554" class="grid"/><text x="1201.5" y="536" text-anchor="middle" class="td"><tspan x="1201.5" dy="0">순천 23:04</tspan></text><line x1="1041" y1="508" x2="1041" y2="554" class="grid"/><line x1="78" y1="554" x2="1362" y2="554" class="grid"/><rect x="78" y="554" width="1284" height="46" fill="#faf9f6"/><text x="238.5" y="582" text-anchor="middle" class="td"><tspan x="238.5" dy="0">무궁화 1496</tspan></text><text x="559.5" y="582" text-anchor="middle" class="td"><tspan x="559.5" dy="0">한강로행</tspan></text><line x1="399" y1="554" x2="399" y2="600" class="grid"/><text x="880.5" y="582" text-anchor="middle" class="td"><tspan x="880.5" dy="0">순천 18:26</tspan></text><line x1="720" y1="554" x2="720" y2="600" class="grid"/><text x="1201.5" y="582" text-anchor="middle" class="td"><tspan x="1201.5" dy="0">한강로 23:38</tspan></text><line x1="1041" y1="554" x2="1041" y2="600" class="grid"/><rect x="78" y="654" width="1284" height="68" rx="9" fill="#eef3fb" stroke="#b6c7e2"/><circle cx="103" cy="682" r="5" fill="#2456a6"/><text x="120" y="688" class="callout">한강로–순천 장거리 직결 운행 · #1491~#1496</text><text x="78" y="762" class="foot">※ 실제 운행 시각은 앱의 열차 상세 시간표에서 다시 확인해 주세요.</text></svg>