<?xml version="1.0" encoding="UTF-8"?>
<svg xmlns="http://www.w3.org/2000/svg" width="1440" height="1561" viewBox="0 0 1440 1561"><style>
    .brand{font:700 14px Arial,sans-serif;letter-spacing:2px;fill:#2456a6}
    .title{font:800 31px 'Apple SD Gothic Neo','Noto Sans CJK KR',sans-serif;fill:#151515}
    .subtitle{font:500 18px 'Apple SD Gothic Neo','Noto Sans CJK KR',sans-serif;fill:#53565a}
    .date{font:600 15px 'Apple SD Gothic Neo','Noto Sans CJK KR',sans-serif;fill:#555}
    .group{font:800 24px 'Apple SD Gothic Neo','Noto Sans CJK KR',sans-serif;fill:#171717}
    .gradeBadge{font:800 14px 'Apple SD Gothic Neo','Noto Sans CJK KR',sans-serif;fill:#fff}
    .direction{font:800 18px 'Apple SD Gothic Neo','Noto Sans CJK KR',sans-serif;fill:#202124}
    .legend{font:700 13px 'Apple SD Gothic Neo','Noto Sans CJK KR',sans-serif;fill:#5f6368}
    .th,.trainNo{font:850 17px 'Apple SD Gothic Neo','Noto Sans CJK KR',sans-serif}.headerText{fill:#fff}
    .dest{font:750 13px 'Apple SD Gothic Neo','Noto Sans CJK KR',sans-serif}.headerSub{fill:rgba(255,255,255,.88)}
    .station{font:750 16px 'Apple SD Gothic Neo','Noto Sans CJK KR',sans-serif;fill:#202124}.passStation{fill:#777c83;font-weight:650}
    .time{font:650 15px 'JetBrains Mono','SFMono-Regular',monospace;fill:#202124}
    .time.pass{fill:#747980;font-weight:650;font-style:italic}.time.missing{fill:#c9c6bf}.time.terminal{font-weight:850}
    .grid{stroke:#b8b6b0;stroke-width:1}.foot{font:500 13px 'Apple SD Gothic Neo','Noto Sans CJK KR',sans-serif;fill:#666}
  </style><rect width="1440" height="1561" fill="#f4f1e9"/><rect x="38" y="38" width="1364" height="1485" rx="8" fill="#fff" stroke="#d3cec2" stroke-width="2"/><text x="72" y="92" class="brand">NIMBYRAIL PASSENGER INFORMATION</text><text x="72" y="142" class="title">[붙임] 한강로–충주 ITX-마음 전체 운행계획</text><text x="72" y="181" class="subtitle">중부내륙선 경유 · 하루 2왕복 · 4편</text><text x="1368" y="142" text-anchor="end" class="date">2026.06.27 기준</text><rect x="72" y="220" width="1296" height="44" rx="9" fill="#e15a2b" opacity=".11"/><rect x="72" y="220" width="10" height="44" rx="5" fill="#e15a2b"/><text x="98" y="250" class="group">ITX-마음 · 한강로 ↔ 충주</text><rect x="1190" y="227" width="178" height="30" rx="15" fill="#e15a2b"/><text x="1279" y="248" text-anchor="middle" class="gradeBadge">ITX-마음 · 4편</text><text x="72" y="304" class="direction">하행 · 한강로 → 충주</text><text x="1368" y="304" text-anchor="end" class="legend">● 정차  ○ 통과</text><rect x="72" y="320" width="1296" height="478" fill="#fff" stroke="#5f6368" stroke-width="1.5"/><rect x="72" y="320" width="190" height="64" fill="#2d3138"/><text x="167" y="360" text-anchor="middle" class="th headerText">역명</text><rect x="262" y="320" width="184.33333333333334" height="64" fill="#e15a2b"/><text x="354.1666666666667" y="347" text-anchor="middle" class="trainNo headerText">#1881</text><text x="354.1666666666667" y="369" text-anchor="middle" class="dest headerSub">충주행</text><rect x="446.33333333333337" y="320" width="184.33333333333334" height="64" fill="#e15a2b"/><text x="538.5" y="347" text-anchor="middle" class="trainNo headerText">#1883</text><text x="538.5" y="369" text-anchor="middle" class="dest headerSub">충주행</text><line x1="262" y1="320" x2="262" y2="798" class="grid"/><line x1="446.33333333333337" y1="320" x2="446.33333333333337" y2="798" class="grid"/><line x1="630.6666666666667" y1="320" x2="630.6666666666667" y2="798" class="grid"/><line x1="72" y1="384" x2="1368" y2="384" class="grid"/><circle cx="91" cy="407" r="6" fill="#e15a2b" /><text x="106" y="414" class="station ">한강로</text><rect x="264" y="386" width="180.33333333333334" height="42" rx="5" fill="#e15a2b" opacity=".10"/><text x="354.1666666666667" y="414" text-anchor="middle" class="time terminal">21:20 출발</text><rect x="448.33333333333337" y="386" width="180.33333333333334" height="42" rx="5" fill="#e15a2b" opacity=".10"/><text x="538.5" y="414" text-anchor="middle" class="time terminal">22:10 출발</text><line x1="72" y1="430" x2="1368" y2="430" class="grid"/><circle cx="91" cy="453" r="4" fill="#a7abb1" stroke="#fff" stroke-width="2"/><text x="106" y="460" class="station passStation">남안양</text><rect x="264" y="432" width="180.33333333333334" height="42" rx="5" fill="#eef0f2"/><text x="354.1666666666667" y="460" text-anchor="middle" class="time pass">21:24 통과</text><rect x="448.33333333333337" y="432" width="180.33333333333334" height="42" rx="5" fill="#eef0f2"/><text x="538.5" y="460" text-anchor="middle" class="time pass">22:14 통과</text><line x1="72" y1="476" x2="1368" y2="476" class="grid"/><circle cx="91" cy="499" r="6" fill="#e15a2b" /><text x="106" y="506" class="station ">수원</text><rect x="264" y="478" width="180.33333333333334" height="42" rx="5" fill="#e15a2b" opacity=".10"/><text x="354.1666666666667" y="506" text-anchor="middle" class="time stop">21:37–21:38</text><rect x="448.33333333333337" y="478" width="180.33333333333334" height="42" rx="5" fill="#e15a2b" opacity=".10"/><text x="538.5" y="506" text-anchor="middle" class="time stop">22:27–22:28</text><line x1="72" y1="522" x2="1368" y2="522" class="grid"/><circle cx="91" cy="545" r="6" fill="#e15a2b" /><text x="106" y="552" class="station ">오산</text><rect x="264" y="524" width="180.33333333333334" height="42" rx="5" fill="#e15a2b" opacity=".10"/><text x="354.1666666666667" y="552" text-anchor="middle" class="time stop">21:45–21:46</text><rect x="448.33333333333337" y="524" width="180.33333333333334" height="42" rx="5" fill="#e15a2b" opacity=".10"/><text x="538.5" y="552" text-anchor="middle" class="time stop">22:35–22:36</text><line x1="72" y1="568" x2="1368" y2="568" class="grid"/><circle cx="91" cy="591" r="6" fill="#e15a2b" /><text x="106" y="598" class="station ">죽산</text><rect x="264" y="570" width="180.33333333333334" height="42" rx="5" fill="#e15a2b" opacity=".10"/><text x="354.1666666666667" y="598" text-anchor="middle" class="time stop">22:02–22:03</text><rect x="448.33333333333337" y="570" width="180.33333333333334" height="42" rx="5" fill="#e15a2b" opacity=".10"/><text x="538.5" y="598" text-anchor="middle" class="time stop">22:52–22:53</text><line x1="72" y1="614" x2="1368" y2="614" class="grid"/><circle cx="91" cy="637" r="4" fill="#a7abb1" stroke="#fff" stroke-width="2"/><text x="106" y="644" class="station passStation">일죽</text><rect x="264" y="616" width="180.33333333333334" height="42" rx="5" fill="#eef0f2"/><text x="354.1666666666667" y="644" text-anchor="middle" class="time pass">22:06 통과</text><rect x="448.33333333333337" y="616" width="180.33333333333334" height="42" rx="5" fill="#eef0f2"/><text x="538.5" y="644" text-anchor="middle" class="time pass">22:56 통과</text><line x1="72" y1="660" x2="1368" y2="660" class="grid"/><circle cx="91" cy="683" r="6" fill="#e15a2b" /><text x="106" y="690" class="station ">장호원</text><rect x="264" y="662" width="180.33333333333334" height="42" rx="5" fill="#e15a2b" opacity=".10"/><text x="354.1666666666667" y="690" text-anchor="middle" class="time stop">22:12–22:13</text><rect x="448.33333333333337" y="662" width="180.33333333333334" height="42" rx="5" fill="#e15a2b" opacity=".10"/><text x="538.5" y="690" text-anchor="middle" class="time stop">23:02–23:03</text><line x1="72" y1="706" x2="1368" y2="706" class="grid"/><circle cx="91" cy="729" r="4" fill="#a7abb1" stroke="#fff" stroke-width="2"/><text x="106" y="736" class="station passStation">돈산</text><rect x="264" y="708" width="180.33333333333334" height="42" rx="5" fill="#eef0f2"/><text x="354.1666666666667" y="736" text-anchor="middle" class="time pass">22:19 통과</text><rect x="448.33333333333337" y="708" width="180.33333333333334" height="42" rx="5" fill="#eef0f2"/><text x="538.5" y="736" text-anchor="middle" class="time pass">23:09 통과</text><line x1="72" y1="752" x2="1368" y2="752" class="grid"/><circle cx="91" cy="775" r="6" fill="#e15a2b" /><text x="106" y="782" class="station ">충주</text><rect x="264" y="754" width="180.33333333333334" height="42" rx="5" fill="#e15a2b" opacity=".10"/><text x="354.1666666666667" y="782" text-anchor="middle" class="time terminal">22:28 도착</text><rect x="448.33333333333337" y="754" width="180.33333333333334" height="42" rx="5" fill="#e15a2b" opacity=".10"/><text x="538.5" y="782" text-anchor="middle" class="time terminal">23:18 도착</text><text x="72" y="852" class="direction">상행 · 충주 → 한강로</text><text x="1368" y="852" text-anchor="end" class="legend">● 정차  ○ 통과</text><rect x="72" y="868" width="1296" height="478" fill="#fff" stroke="#5f6368" stroke-width="1.5"/><rect x="72" y="868" width="190" height="64" fill="#2d3138"/><text x="167" y="908" text-anchor="middle" class="th headerText">역명</text><rect x="262" y="868" width="184.33333333333334" height="64" fill="#e15a2b"/><text x="354.1666666666667" y="895" text-anchor="middle" class="trainNo headerText">#1882</text><text x="354.1666666666667" y="917" text-anchor="middle" class="dest headerSub">한강로행</text><rect x="446.33333333333337" y="868" width="184.33333333333334" height="64" fill="#e15a2b"/><text x="538.5" y="895" text-anchor="middle" class="trainNo headerText">#1884</text><text x="538.5" y="917" text-anchor="middle" class="dest headerSub">한강로행</text><line x1="262" y1="868" x2="262" y2="1346" class="grid"/><line x1="446.33333333333337" y1="868" x2="446.33333333333337" y2="1346" class="grid"/><line x1="630.6666666666667" y1="868" x2="630.6666666666667" y2="1346" class="grid"/><line x1="72" y1="932" x2="1368" y2="932" class="grid"/><circle cx="91" cy="955" r="6" fill="#e15a2b" /><text x="106" y="962" class="station ">충주</text><rect x="264" y="934" width="180.33333333333334" height="42" rx="5" fill="#e15a2b" opacity=".10"/><text x="354.1666666666667" y="962" text-anchor="middle" class="time terminal">5:30 출발</text><rect x="448.33333333333337" y="934" width="180.33333333333334" height="42" rx="5" fill="#e15a2b" opacity=".10"/><text x="538.5" y="962" text-anchor="middle" class="time terminal">7:00 출발</text><line x1="72" y1="978" x2="1368" y2="978" class="grid"/><circle cx="91" cy="1001" r="4" fill="#a7abb1" stroke="#fff" stroke-width="2"/><text x="106" y="1008" class="station passStation">돈산</text><rect x="264" y="980" width="180.33333333333334" height="42" rx="5" fill="#eef0f2"/><text x="354.1666666666667" y="1008" text-anchor="middle" class="time pass">5:38 통과</text><rect x="448.33333333333337" y="980" width="180.33333333333334" height="42" rx="5" fill="#eef0f2"/><text x="538.5" y="1008" text-anchor="middle" class="time pass">7:08 통과</text><line x1="72" y1="1024" x2="1368" y2="1024" class="grid"/><circle cx="91" cy="1047" r="6" fill="#e15a2b" /><text x="106" y="1054" class="station ">장호원</text><rect x="264" y="1026" width="180.33333333333334" height="42" rx="5" fill="#e15a2b" opacity=".10"/><text x="354.1666666666667" y="1054" text-anchor="middle" class="time stop">5:45–5:46</text><rect x="448.33333333333337" y="1026" width="180.33333333333334" height="42" rx="5" fill="#e15a2b" opacity=".10"/><text x="538.5" y="1054" text-anchor="middle" class="time stop">7:15–7:16</text><line x1="72" y1="1070" x2="1368" y2="1070" class="grid"/><circle cx="91" cy="1093" r="4" fill="#a7abb1" stroke="#fff" stroke-width="2"/><text x="106" y="1100" class="station passStation">일죽</text><rect x="264" y="1072" width="180.33333333333334" height="42" rx="5" fill="#eef0f2"/><text x="354.1666666666667" y="1100" text-anchor="middle" class="time pass">5:52 통과</text><rect x="448.33333333333337" y="1072" width="180.33333333333334" height="42" rx="5" fill="#eef0f2"/><text x="538.5" y="1100" text-anchor="middle" class="time pass">7:22 통과</text><line x1="72" y1="1116" x2="1368" y2="1116" class="grid"/><circle cx="91" cy="1139" r="6" fill="#e15a2b" /><text x="106" y="1146" class="station ">죽산</text><rect x="264" y="1118" width="180.33333333333334" height="42" rx="5" fill="#e15a2b" opacity=".10"/><text x="354.1666666666667" y="1146" text-anchor="middle" class="time stop">5:54–5:56</text><rect x="448.33333333333337" y="1118" width="180.33333333333334" height="42" rx="5" fill="#e15a2b" opacity=".10"/><text x="538.5" y="1146" text-anchor="middle" class="time stop">7:24–7:26</text><line x1="72" y1="1162" x2="1368" y2="1162" class="grid"/><circle cx="91" cy="1185" r="6" fill="#e15a2b" /><text x="106" y="1192" class="station ">오산</text><rect x="264" y="1164" width="180.33333333333334" height="42" rx="5" fill="#e15a2b" opacity=".10"/><text x="354.1666666666667" y="1192" text-anchor="middle" class="time stop">6:12–6:13</text><rect x="448.33333333333337" y="1164" width="180.33333333333334" height="42" rx="5" fill="#e15a2b" opacity=".10"/><text x="538.5" y="1192" text-anchor="middle" class="time stop">7:42–7:43</text><line x1="72" y1="1208" x2="1368" y2="1208" class="grid"/><circle cx="91" cy="1231" r="6" fill="#e15a2b" /><text x="106" y="1238" class="station ">수원</text><rect x="264" y="1210" width="180.33333333333334" height="42" rx="5" fill="#e15a2b" opacity=".10"/><text x="354.1666666666667" y="1238" text-anchor="middle" class="time stop">6:20–6:21</text><rect x="448.33333333333337" y="1210" width="180.33333333333334" height="42" rx="5" fill="#e15a2b" opacity=".10"/><text x="538.5" y="1238" text-anchor="middle" class="time stop">7:50–7:51</text><line x1="72" y1="1254" x2="1368" y2="1254" class="grid"/><circle cx="91" cy="1277" r="4" fill="#a7abb1" stroke="#fff" stroke-width="2"/><text x="106" y="1284" class="station passStation">남안양</text><rect x="264" y="1256" width="180.33333333333334" height="42" rx="5" fill="#eef0f2"/><text x="354.1666666666667" y="1284" text-anchor="middle" class="time pass">6:34 통과</text><rect x="448.33333333333337" y="1256" width="180.33333333333334" height="42" rx="5" fill="#eef0f2"/><text x="538.5" y="1284" text-anchor="middle" class="time pass">8:04 통과</text><line x1="72" y1="1300" x2="1368" y2="1300" class="grid"/><circle cx="91" cy="1323" r="6" fill="#e15a2b" /><text x="106" y="1330" class="station ">한강로</text><rect x="264" y="1302" width="180.33333333333334" height="42" rx="5" fill="#e15a2b" opacity=".10"/><text x="354.1666666666667" y="1330" text-anchor="middle" class="time terminal">6:38 도착</text><rect x="448.33333333333337" y="1302" width="180.33333333333334" height="42" rx="5" fill="#e15a2b" opacity=".10"/><text x="538.5" y="1330" text-anchor="middle" class="time terminal">8:08 도착</text><line x1="72" y1="1475" x2="1368" y2="1475" stroke="#aaa59b"/><text x="72" y="1509" class="foot">※ 등급색 칸은 정차, 회색 칸은 통과입니다. 모든 열차가 정차하는 표는 줄무늬로만 구분합니다.</text><text x="1368" y="1509" text-anchor="end" class="foot">자료: NIMBYRAILTABLE ALL_TRAINS · 자동 생성</text></svg>